<svg xmlns="http://www.w3.org/2000/svg" viewBox="0 0 64 64">
  <defs>
    <linearGradient id="bg" x1="8" y1="6" x2="56" y2="58" gradientUnits="userSpaceOnUse">
      <stop offset="0" stop-color="#ffd76a" />
      <stop offset="1" stop-color="#ff9b47" />
    </linearGradient>
    <linearGradient id="paper" x1="15" y1="12" x2="51" y2="52" gradientUnits="userSpaceOnUse">
      <stop offset="0" stop-color="#ffffff" />
      <stop offset="1" stop-color="#f7f9ff" />
    </linearGradient>
  </defs>
  <rect x="4" y="4" width="56" height="56" rx="14" fill="url(#bg)" stroke="#e0812f" stroke-width="2" />
  <path d="M17 12h24l10 10v28a4 4 0 0 1-4 4H17a4 4 0 0 1-4-4V16a4 4 0 0 1 4-4z" fill="url(#paper)" />
  <path d="M41 12v10h10z" fill="#ffe49f" />
  <rect x="20" y="27" width="24" height="3.2" rx="1.6" fill="#6f8bcb" opacity="0.92" />
  <rect x="20" y="34" width="20" height="3.2" rx="1.6" fill="#8fa3d9" opacity="0.92" />
  <rect x="20" y="41" width="17" height="3.2" rx="1.6" fill="#a8b6e4" opacity="0.92" />
  <circle cx="21" cy="21" r="3.5" fill="#ff9f55" />
</svg>
